<svg id="Layer_1" data-name="Layer 1" xmlns="http://www.w3.org/2000/svg" viewBox="0 0 239.98 98.16"><defs><style>.cls-1{fill:#fff;}</style></defs><title>life-02</title><path d="M8391.85,1479.37a48.79,48.79,0,1,1-48.79-48.79,48.79,48.79,0,0,1,48.79,48.79" transform="translate(-8294.27 -1430.3)"/><path class="cls-1" d="M8342.05,1503.39a44,44,0,0,0-9.5-1,82.05,82.05,0,0,0-9.24.5q-4.36.51-5.31.51a6.82,6.82,0,0,1-5.35-2.44,12.43,12.43,0,0,1-2.67-6.83q6.78,2.27,20.85,2.26-.3-7-2.11-19.21t-1.81-14.4q0-2.2.09-3a5.48,5.48,0,0,1,.56-1.81,3.19,3.19,0,0,1,1.37-1.46,15.56,15.56,0,0,1,6.59-1.42c-.16,2.06-.24,3.68-.24,4.87a177,177,0,0,0,2.2,23.63q1.24,9.21,1.24,11.32a14.17,14.17,0,0,1-.29,3.29,8.51,8.51,0,0,1,3.62,5.23" transform="translate(-8294.27 -1430.3)"/><path class="cls-1" d="M8365.09,1482.84l-5.7-.06c-1.62,0-2.87,0-3.74.06a124.91,124.91,0,0,0-.95,13.48,49.15,49.15,0,0,0,.36,7.25c-1.27.08-2.1.12-2.5.12q-3.39,0-4.87-1.19c-1-.79-1.48-2.19-1.48-4.19a138.74,138.74,0,0,1,1.66-14.4,24,24,0,0,0-2.79,1c-.08-.87-.12-1.52-.12-2q0-4.1,3.74-5.11,1.13-8.13,1.37-14.07c-2,0-3.3-.28-3.83-.83s-.81-1.79-.81-3.69a23.48,23.48,0,0,1,.48-3.5,113,113,0,0,0,14.73.89,82.74,82.74,0,0,0,15.5-1.42q-.84,6.23-7.6,7.48a73.23,73.23,0,0,1-10.52,1q-.06.77-1.72,13.84c2.3.08,3.86.11,4.69.11,3.76,0,6.44-.65,8-2,.08.8.12,1.39.12,1.79q0,5.4-4,5.4" transform="translate(-8294.27 -1430.3)"/><path d="M8410.11,1490.28a17,17,0,0,1-.37-4q0-2.58,1.53-13.87,2.7-18.7,2.69-29c0-1.45-.09-3.44-.29-6q5.54.3,8.08,1.75a3.87,3.87,0,0,1,1.68,1.78,6.94,6.94,0,0,1,.69,2.22c.07.68.11,1.92.11,3.72s-.74,7.68-2.22,17.65-2.34,17.82-2.59,23.55q17.25,0,25.55-2.77a15.1,15.1,0,0,1-3.27,8.37,8.36,8.36,0,0,1-6.55,3q-1.17,0-6.52-.62a99.23,99.23,0,0,0-11.32-.62,54.11,54.11,0,0,0-11.64,1.24,10.39,10.39,0,0,1,4.44-6.41" transform="translate(-8294.27 -1430.3)"/><path d="M8449.78,1483.88a93,93,0,0,1,1.16-11.07,92.19,92.19,0,0,0,1.17-12.45,40.75,40.75,0,0,0-.44-6.84c1.07-.1,2.06-.15,3-.15,2.81,0,4.76.48,5.86,1.42s1.63,2.57,1.63,4.85c0,.72-.59,4.55-1.78,11.46a107.72,107.72,0,0,0-1.82,17.11c0,4.49.25,7.39.84,8.7q-5.68-1.46-7.65-4.41c-1.31-2-2-4.84-2-8.62m9.9-36.62q-7.5,0-7.5-5.24a17.45,17.45,0,0,1,1.09-5.17,26.31,26.31,0,0,1,3.57-.29q7.5,0,7.5,5.24a17.84,17.84,0,0,1-1.09,5.17,26.31,26.31,0,0,1-3.57.29" transform="translate(-8294.27 -1430.3)"/><path d="M8496.73,1455.49c0,2.32-.41,3.94-1.24,4.84s-2.27,1.34-4.33,1.34-3.65,0-4.77-.07q-2.83,20.67-2.83,29.63c0,2.86.06,4.94.18,6.22s.45,3.48,1,6.59a13.93,13.93,0,0,1-7.72-5.42,15.69,15.69,0,0,1-2.47-8.85q0-7.63,2.18-22.56c.34-2.53.56-4.2.66-5a32,32,0,0,0-7.86,2.48q-.15-1.61-.15-2.4,0-3.94,2.4-5.32a14.47,14.47,0,0,1,6.92-1.45,54.75,54.75,0,0,1,3.89-12.31,24.56,24.56,0,0,1,5.35-7.79q5.54-5.09,11.58-5.09a10.09,10.09,0,0,1,6.88,2.44,7.63,7.63,0,0,1,2.8,6,8.82,8.82,0,0,1-2.4,6.15,8.22,8.22,0,0,1-6.34,2.62,8.93,8.93,0,0,1-3-.51,8.78,8.78,0,0,0,2.29-3.06,9,9,0,0,0,1.13-4.11,4.84,4.84,0,0,0-.84-3,2.64,2.64,0,0,0-2.22-1.09c-2,0-4,1.66-6.08,5s-3.6,8.34-4.62,15q6.48,0,9.47-2.4c.09,1,.14,1.7.14,2.19" transform="translate(-8294.27 -1430.3)"/><path d="M8517.7,1477.91a29.57,29.57,0,0,1-6.85-.8c-.05.48-.07,1.23-.07,2.25q0,6,2.26,9.1a6.56,6.56,0,0,0,5.38,3.06,10.59,10.59,0,0,0,6-1.89,17,17,0,0,0,5-5.24c1.75.38,2.62,1.28,2.62,2.69q-6.4,9.83-16.52,9.83a14.51,14.51,0,0,1-10.7-4.7q-4.59-4.7-4.59-13.07a30.09,30.09,0,0,1,2.4-11.9,23,23,0,0,1,7.65-9.53,19,19,0,0,1,11.61-3.9q6.36,0,9.35,2.91a10.21,10.21,0,0,1,3,7.65q0,6.84-4.77,10.19a19.83,19.83,0,0,1-11.68,3.35m3-19.59q-3.7,0-6.26,4.59a30.49,30.49,0,0,0-3.35,11.14h1.1q6.33,0,9.35-3.28a11.19,11.19,0,0,0,3-7.86,5.39,5.39,0,0,0-1-3.24,3.35,3.35,0,0,0-2.88-1.35" transform="translate(-8294.27 -1430.3)"/><path d="M8405.54,1528.05v-.57l2.09-.63v-10.74l-2.09-.26v-.69l4.44-1.09v12.78l2.09.63v.57Zm1.61-18.42a1.66,1.66,0,0,1,1.69-1.63,1.64,1.64,0,1,1,0,3.27,1.65,1.65,0,0,1-1.69-1.64" transform="translate(-8294.27 -1430.3)"/><path d="M8431.47,1526.42l2,.26v.69l-4.3,1.09v-2.13a6.28,6.28,0,0,1-4.52,2.13c-3,0-5.25-2.58-5.25-6.45,0-5.33,3.38-7.94,6.88-7.94a9.82,9.82,0,0,1,2.89.52v-5.3l-2.18-.26v-.69l4.53-1.09Zm-2.35-1.23v-9.14a4.84,4.84,0,0,0-3.09-1.18c-2.35,0-4.3,2.44-4.3,6s1.55,5.85,4.15,5.85a4.68,4.68,0,0,0,3.24-1.52" transform="translate(-8294.27 -1430.3)"/><path d="M8440.76,1528.05v-.57l2.09-.63v-10.74l-2.09-.26v-.69l4.44-1.09v12.78l2.09.63v.57Zm1.6-18.42a1.66,1.66,0,0,1,1.69-1.63,1.64,1.64,0,1,1,0,3.27,1.65,1.65,0,0,1-1.69-1.64" transform="translate(-8294.27 -1430.3)"/><path d="M8454.57,1521.35c0-4,2.23-7.28,6.64-7.28s6.59,3.33,6.59,7.08c0,4-2.23,7.31-6.64,7.31s-6.59-3.36-6.59-7.11m10.48-.12c0-4.58-1.46-6.36-3.89-6.36s-3.84,1.81-3.84,6.39,1.46,6.39,3.89,6.39,3.84-1.83,3.84-6.42" transform="translate(-8294.27 -1430.3)"/><path d="M8475.43,1528.05v-.57l2.09-.63v-10.74l-2.09-.26v-.69l4.44-1.09v2.15a7,7,0,0,1,4.55-2.15,3.62,3.62,0,0,1,3.59,2.41,7.12,7.12,0,0,1,4.78-2.41c2.38,0,3.81,1.55,3.81,4.33v8.45l2.09.63v.57h-6.53v-.57l2.09-.63v-7.91c0-2.17-1-3.18-2.78-3.18a4.66,4.66,0,0,0-3.24,1.64v9.45l2.1.63v.57h-6.54v-.57l2.1-.63v-7.91c0-2.17-1-3.18-2.78-3.18a4.68,4.68,0,0,0-3.24,1.55v9.54l2.09.63v.57Z" transform="translate(-8294.27 -1430.3)"/><path d="M8517.49,1528a8.3,8.3,0,0,1-2.61.46c-1.12,0-1.86-.58-1.86-1.61v-.51a5.39,5.39,0,0,1-4.1,2.12c-1.77,0-3.32-.86-3.32-2.73,0-2.49,2.66-4.06,7.42-4.64v-3.38c0-2.09-.8-2.84-2.09-2.84-1.55,0-2.75,1.09-2.81,3.47h-.54c-1.29,0-1.61-.49-1.61-1.12,0-1.86,2.84-3.15,5.7-3.15,2.67,0,3.7,1.52,3.7,3.81v7.74c0,1.32.37,1.75,1.4,1.75h.72Zm-7.56-.92a4.06,4.06,0,0,0,3.09-1.95v-3.24c-2.92.46-4.87,1.67-4.87,3.27a1.7,1.7,0,0,0,1.78,1.92" transform="translate(-8294.27 -1430.3)"/><path d="M8529.15,1528.46c-2.32,0-4.75-.84-4.75-2.53,0-.86.83-1.54,1.94-1.63.06,2.24,1.09,3.35,2.9,3.35,1.6,0,2.89-.88,2.89-2.23s-1-1.89-3.15-3-4-2.09-4-4.39c0-2.49,2.23-4,4.7-4s4.09.86,4.09,2.47c0,1-1,1.37-2.09,1.37,0-1.69-.63-3-2.43-3a2.16,2.16,0,0,0-2.38,2.24c0,1.4,1.49,2.12,3.38,3,2.06,1,4,2.06,4,4.26,0,2.55-2.35,4-5.1,4" transform="translate(-8294.27 -1430.3)"/></svg>