<svg id="Layer_1" data-name="Layer 1" xmlns="http://www.w3.org/2000/svg" viewBox="0 0 239.98 98.16"><defs><style>.cls-1{fill:#bf272e;}.cls-2{fill:#fff;}.cls-3{fill:#333d8d;}</style></defs><title>life-01</title><path class="cls-1" d="M7963.89,1478.29a48.79,48.79,0,1,1-48.79-48.79,48.79,48.79,0,0,1,48.79,48.79" transform="translate(-7866.31 -1429.22)"/><path class="cls-2" d="M7914.09,1502.31a44,44,0,0,0-9.5-1,81.87,81.87,0,0,0-9.23.5c-2.91.34-4.68.51-5.32.51a6.78,6.78,0,0,1-5.34-2.44A12.36,12.36,0,0,1,7882,1493q6.78,2.26,20.85,2.26-.3-7-2.11-19.21t-1.81-14.4q0-2.2.09-3a5.73,5.73,0,0,1,.56-1.81,3.19,3.19,0,0,1,1.37-1.46,15.56,15.56,0,0,1,6.59-1.42c-.16,2.06-.24,3.68-.24,4.87a178.75,178.75,0,0,0,2.2,23.63q1.24,9.21,1.25,11.32a14.08,14.08,0,0,1-.3,3.29,8.51,8.51,0,0,1,3.62,5.23" transform="translate(-7866.31 -1429.22)"/><path class="cls-2" d="M7937.13,1481.76l-5.7-.06c-1.62,0-2.87,0-3.74.06a124.91,124.91,0,0,0-.95,13.48,49.15,49.15,0,0,0,.36,7.25c-1.27.08-2.1.12-2.5.12-2.25,0-3.88-.4-4.87-1.19s-1.48-2.19-1.48-4.19a138.74,138.74,0,0,1,1.66-14.4,24,24,0,0,0-2.79,1c-.08-.87-.12-1.52-.12-2q0-4.1,3.74-5.11,1.13-8.13,1.37-14.07c-2,0-3.3-.28-3.83-.83s-.8-1.78-.8-3.69a22.58,22.58,0,0,1,.47-3.5,111.36,111.36,0,0,0,14.73.89,82.74,82.74,0,0,0,15.5-1.42q-.84,6.22-7.6,7.48a71.78,71.78,0,0,1-10.51.95q-.06.78-1.73,13.84c2.3.08,3.86.12,4.7.12,3.76,0,6.43-.66,8-2,.08.79.12,1.38.12,1.78,0,3.6-1.34,5.4-4,5.4" transform="translate(-7866.31 -1429.22)"/><path class="cls-1" d="M7982.15,1489.2a17,17,0,0,1-.37-4q0-2.58,1.53-13.86,2.7-18.72,2.7-29,0-2.17-.3-6c3.69.2,6.39.78,8.08,1.75a3.87,3.87,0,0,1,1.68,1.78,6.76,6.76,0,0,1,.69,2.22c.07.68.11,1.92.11,3.72s-.74,7.68-2.22,17.65-2.34,17.82-2.58,23.55q17.25,0,25.55-2.77a15.11,15.11,0,0,1-3.28,8.37,8.36,8.36,0,0,1-6.55,3q-1.17,0-6.52-.62a99.1,99.1,0,0,0-11.32-.62,54.11,54.11,0,0,0-11.64,1.24,10.39,10.39,0,0,1,4.44-6.41" transform="translate(-7866.31 -1429.22)"/><path class="cls-1" d="M8021.82,1482.8a91.46,91.46,0,0,1,1.17-11.07,93.53,93.53,0,0,0,1.16-12.45,40.83,40.83,0,0,0-.44-6.84c1.07-.1,2.07-.14,3-.14,2.81,0,4.77.47,5.86,1.42s1.64,2.56,1.64,4.84c0,.72-.6,4.55-1.79,11.46a108.91,108.91,0,0,0-1.82,17.11q0,6.73.84,8.7-5.68-1.45-7.64-4.41c-1.31-2-2-4.84-2-8.62m9.9-36.62q-7.5,0-7.5-5.24a17.84,17.84,0,0,1,1.09-5.17,26.31,26.31,0,0,1,3.57-.29q7.5,0,7.5,5.24a17.45,17.45,0,0,1-1.09,5.17,26.31,26.31,0,0,1-3.57.29" transform="translate(-7866.31 -1429.22)"/><path class="cls-1" d="M8068.77,1454.41q0,3.49-1.23,4.84c-.83.9-2.27,1.34-4.34,1.34s-3.65,0-4.76-.07q-2.85,20.67-2.84,29.63c0,2.86.06,4.94.18,6.22s.45,3.48,1,6.59a13.91,13.91,0,0,1-7.71-5.42,15.7,15.7,0,0,1-2.48-8.85q0-7.64,2.18-22.56c.34-2.53.56-4.2.66-5a32.26,32.26,0,0,0-7.86,2.48q-.15-1.61-.15-2.4,0-3.93,2.4-5.32a14.62,14.62,0,0,1,6.92-1.45,54.75,54.75,0,0,1,3.89-12.31,24.41,24.41,0,0,1,5.36-7.79q5.52-5.08,11.57-5.09a10.09,10.09,0,0,1,6.88,2.44,7.6,7.6,0,0,1,2.8,6,8.82,8.82,0,0,1-2.4,6.15,8.16,8.16,0,0,1-6.33,2.62,9,9,0,0,1-3-.51,8.78,8.78,0,0,0,2.29-3.06,8.87,8.87,0,0,0,1.13-4.11,4.9,4.9,0,0,0-.83-3,2.66,2.66,0,0,0-2.22-1.09c-2,0-4,1.66-6.08,5s-3.61,8.34-4.63,15c4.32,0,7.48-.81,9.47-2.41.09,1,.14,1.7.14,2.19" transform="translate(-7866.31 -1429.22)"/><path class="cls-1" d="M8089.74,1476.83a29.48,29.48,0,0,1-6.84-.8c0,.48-.08,1.23-.08,2.25,0,4,.75,7.07,2.26,9.1a6.57,6.57,0,0,0,5.39,3.06,10.64,10.64,0,0,0,6-1.89,17.23,17.23,0,0,0,5-5.24c1.74.39,2.62,1.28,2.62,2.69q-6.42,9.82-16.53,9.83a14.51,14.51,0,0,1-10.7-4.7q-4.59-4.7-4.59-13.07a30.1,30.1,0,0,1,2.41-11.9,23,23,0,0,1,7.64-9.53,19,19,0,0,1,11.61-3.9c4.25,0,7.36,1,9.36,2.91a10.25,10.25,0,0,1,3,7.65q0,6.84-4.77,10.19a19.83,19.83,0,0,1-11.68,3.35m3.06-19.58c-2.48,0-4.57,1.52-6.26,4.58a30.3,30.3,0,0,0-3.35,11.14h1.09q6.33,0,9.35-3.28a11.15,11.15,0,0,0,3-7.86,5.32,5.32,0,0,0-1-3.24,3.31,3.31,0,0,0-2.87-1.34" transform="translate(-7866.31 -1429.22)"/><path class="cls-3" d="M7977.58,1527v-.58l2.09-.63V1515l-2.09-.26v-.69L7982,1513v12.78l2.1.63v.58Zm1.61-18.43a1.66,1.66,0,0,1,1.69-1.63,1.64,1.64,0,1,1,0,3.27,1.65,1.65,0,0,1-1.69-1.64" transform="translate(-7866.31 -1429.22)"/><path class="cls-3" d="M8003.51,1525.34l1.95.26v.69l-4.3,1.09v-2.12a6.29,6.29,0,0,1-4.52,2.12c-3,0-5.25-2.58-5.25-6.45,0-5.33,3.39-7.94,6.88-7.94a9.71,9.71,0,0,1,2.89.52v-5.3L7999,1508v-.69l4.52-1.09Zm-2.35-1.23V1515a4.83,4.83,0,0,0-3.09-1.17c-2.35,0-4.3,2.43-4.3,6s1.55,5.85,4.16,5.85a4.68,4.68,0,0,0,3.23-1.52" transform="translate(-7866.31 -1429.22)"/><path class="cls-3" d="M8012.8,1527v-.58l2.09-.63V1515l-2.09-.26v-.69l4.44-1.09v12.78l2.09.63v.58Zm1.6-18.43a1.66,1.66,0,0,1,1.69-1.63,1.64,1.64,0,1,1,0,3.27,1.65,1.65,0,0,1-1.69-1.64" transform="translate(-7866.31 -1429.22)"/><path class="cls-3" d="M8026.61,1520.27c0-4,2.23-7.28,6.65-7.28s6.59,3.33,6.59,7.08c0,4-2.24,7.31-6.65,7.31s-6.59-3.36-6.59-7.11m10.49-.11c0-4.59-1.47-6.36-3.9-6.36s-3.84,1.8-3.84,6.38,1.46,6.39,3.9,6.39,3.84-1.83,3.84-6.41" transform="translate(-7866.31 -1429.22)"/><path class="cls-3" d="M8047.47,1527v-.57l2.09-.63V1515l-2.09-.26v-.69l4.44-1.09v2.15a7,7,0,0,1,4.56-2.15,3.61,3.61,0,0,1,3.58,2.41,7.15,7.15,0,0,1,4.78-2.41c2.38,0,3.81,1.55,3.81,4.33v8.45l2.09.63v.57h-6.53v-.57l2.09-.63v-7.91c0-2.17-1-3.18-2.78-3.18a4.64,4.64,0,0,0-3.23,1.64v9.45l2.09.63v.57h-6.53v-.57l2.09-.63v-7.91c0-2.17-1-3.18-2.78-3.18a4.7,4.7,0,0,0-3.24,1.55v9.54l2.09.63v.57Z" transform="translate(-7866.31 -1429.22)"/><path class="cls-3" d="M8089.53,1526.92a8.3,8.3,0,0,1-2.61.46c-1.11,0-1.86-.58-1.86-1.61v-.51a5.35,5.35,0,0,1-4.1,2.12c-1.77,0-3.32-.86-3.32-2.73,0-2.49,2.67-4.06,7.42-4.64v-3.38c0-2.09-.8-2.83-2.09-2.83-1.55,0-2.75,1.08-2.81,3.46h-.54c-1.29,0-1.61-.48-1.61-1.11,0-1.87,2.84-3.16,5.71-3.16,2.66,0,3.69,1.52,3.69,3.81v7.74c0,1.32.37,1.75,1.41,1.75h.71ZM8082,1526a4,4,0,0,0,3.09-2v-3.24c-2.92.46-4.87,1.67-4.87,3.27A1.7,1.7,0,0,0,8082,1526" transform="translate(-7866.31 -1429.22)"/><path class="cls-3" d="M8101.19,1527.38c-2.32,0-4.75-.83-4.75-2.52,0-.86.83-1.55,2-1.64,0,2.24,1.08,3.35,2.89,3.35,1.6,0,2.89-.88,2.89-2.23s-1-1.89-3.15-2.95-4-2.09-4-4.39c0-2.49,2.23-4,4.7-4s4.1.86,4.1,2.47c0,1-1,1.37-2.1,1.37,0-1.69-.63-3-2.43-3a2.16,2.16,0,0,0-2.38,2.24c0,1.4,1.49,2.12,3.38,3,2.07,1,4,2.06,4,4.27,0,2.55-2.35,4-5.1,4" transform="translate(-7866.31 -1429.22)"/></svg>