<svg id="Layer_1" data-name="Layer 1" xmlns="http://www.w3.org/2000/svg" viewBox="0 0 239.98 98.16"><defs><style>.cls-1{fill:#fff;}</style></defs><title>life-03</title><path class="cls-1" d="M7909.65,1832.2a48.79,48.79,0,1,0,48.78,48.79,48.78,48.78,0,0,0-48.78-48.79m-10.52,71.8a79.65,79.65,0,0,0-9.23.51c-2.91.33-4.68.5-5.32.5a6.83,6.83,0,0,1-5.34-2.43,12.39,12.39,0,0,1-2.67-6.83q6.77,2.25,20.84,2.25-.3-7-2.11-19.21t-1.81-14.4q0-2.19.09-3a5.6,5.6,0,0,1,.57-1.81,3.1,3.1,0,0,1,1.36-1.45,15.62,15.62,0,0,1,6.59-1.43c-.15,2.06-.23,3.68-.23,4.87a178.66,178.66,0,0,0,2.19,23.64q1.24,9.19,1.25,11.31a14.18,14.18,0,0,1-.3,3.3,8.5,8.5,0,0,1,3.63,5.22,44.75,44.75,0,0,0-9.51-1m36-39.67a71.64,71.64,0,0,1-10.51,1q-.06.78-1.72,13.84c2.29.08,3.86.12,4.69.12,3.76,0,6.43-.66,8-2,.08.79.12,1.38.12,1.78q0,5.4-4,5.4l-5.7-.06c-1.63,0-2.87,0-3.74.06a122.94,122.94,0,0,0-1,13.48,49.15,49.15,0,0,0,.36,7.25q-1.91.12-2.49.12-3.39,0-4.87-1.19c-1-.79-1.49-2.19-1.49-4.19a140.25,140.25,0,0,1,1.67-14.4,27.32,27.32,0,0,0-2.8,1c-.08-.87-.11-1.52-.11-2,0-2.73,1.24-4.43,3.74-5.1q1.13-8.14,1.36-14.08c-2,0-3.29-.28-3.83-.83s-.8-1.78-.8-3.68a23.69,23.69,0,0,1,.48-3.51,111.12,111.12,0,0,0,14.72.9,82.66,82.66,0,0,0,15.5-1.43q-.82,6.24-7.6,7.48" transform="translate(-7860.86 -1831.92)"/><path class="cls-1" d="M7976.69,1891.9a17.62,17.62,0,0,1-.36-4q0-2.58,1.53-13.86,2.69-18.7,2.69-29,0-2.18-.29-6,5.53.29,8.08,1.74a3.9,3.9,0,0,1,1.68,1.79,7.2,7.2,0,0,1,.69,2.22c.07.68.11,1.91.11,3.71s-.74,7.68-2.22,17.65-2.35,17.83-2.59,23.55q17.25,0,25.55-2.77a15.17,15.17,0,0,1-3.27,8.38,8.36,8.36,0,0,1-6.55,3q-1.17,0-6.52-.62a99.23,99.23,0,0,0-11.32-.62,54.27,54.27,0,0,0-11.65,1.24,10.49,10.49,0,0,1,4.44-6.41" transform="translate(-7860.86 -1831.92)"/><path class="cls-1" d="M8016.37,1885.5a93,93,0,0,1,1.16-11.07,91.93,91.93,0,0,0,1.17-12.44,40.89,40.89,0,0,0-.44-6.85c1.07-.09,2.06-.14,3-.14q4.23,0,5.86,1.42c1.1.94,1.64,2.56,1.64,4.84q0,1.1-1.78,11.46a107.72,107.72,0,0,0-1.82,17.11q0,6.74.84,8.7-5.68-1.46-7.65-4.4t-2-8.63m9.9-36.62q-7.5,0-7.5-5.24a17.51,17.51,0,0,1,1.09-5.17,26.31,26.31,0,0,1,3.57-.29q7.5,0,7.5,5.24a17.47,17.47,0,0,1-1.1,5.17,24.55,24.55,0,0,1-3.56.29" transform="translate(-7860.86 -1831.92)"/><path class="cls-1" d="M8063.32,1857.11q0,3.5-1.24,4.84c-.82.9-2.27,1.35-4.33,1.35s-3.65,0-4.77-.08q-2.83,20.68-2.84,29.63,0,4.29.19,6.23c.12,1.28.44,3.48,1,6.58a13.88,13.88,0,0,1-7.72-5.42,15.69,15.69,0,0,1-2.47-8.85q0-7.64,2.18-22.56c.34-2.52.56-4.2.66-5a31.73,31.73,0,0,0-7.87,2.47c-.09-1.07-.14-1.87-.14-2.4q0-3.93,2.4-5.32a14.59,14.59,0,0,1,6.92-1.45,54.49,54.49,0,0,1,3.89-12.3,24.33,24.33,0,0,1,5.35-7.79q5.53-5.1,11.58-5.1a10.11,10.11,0,0,1,6.88,2.44,7.66,7.66,0,0,1,2.8,6,8.82,8.82,0,0,1-2.4,6.15,8.2,8.2,0,0,1-6.34,2.62,8.93,8.93,0,0,1-3-.51,10.87,10.87,0,0,0,3.42-7.17,4.86,4.86,0,0,0-.84-3,2.66,2.66,0,0,0-2.22-1.09c-2,0-4,1.66-6.08,5s-3.6,8.33-4.62,15q6.48,0,9.46-2.41c.1,1,.15,1.7.15,2.19" transform="translate(-7860.86 -1831.92)"/><path class="cls-1" d="M8084.28,1879.53a29.48,29.48,0,0,1-6.84-.8c0,.48-.07,1.24-.07,2.26,0,4,.75,7.06,2.26,9.1a6.56,6.56,0,0,0,5.38,3.05,10.59,10.59,0,0,0,6-1.89,17.23,17.23,0,0,0,5-5.24c1.75.39,2.62,1.29,2.62,2.69q-6.41,9.83-16.52,9.83a14.49,14.49,0,0,1-10.7-4.7q-4.59-4.69-4.59-13.06a30.05,30.05,0,0,1,2.4-11.9,22.92,22.92,0,0,1,7.65-9.54,19,19,0,0,1,11.61-3.9q6.36,0,9.35,2.92a10.2,10.2,0,0,1,3,7.64q0,6.84-4.77,10.19a19.86,19.86,0,0,1-11.69,3.35m3.06-19.58q-3.7,0-6.26,4.58a30.49,30.49,0,0,0-3.35,11.14h1.09c4.23,0,7.34-1.09,9.36-3.27a11.23,11.23,0,0,0,3-7.87,5.39,5.39,0,0,0-1-3.24,3.37,3.37,0,0,0-2.88-1.34" transform="translate(-7860.86 -1831.92)"/><path class="cls-1" d="M7972.13,1929.68v-.58l2.09-.63v-10.74l-2.09-.26v-.69l4.44-1.08v12.77l2.09.63v.58Zm1.6-18.43a1.67,1.67,0,0,1,1.69-1.63,1.71,1.71,0,0,1,1.7,1.63,1.69,1.69,0,0,1-1.7,1.64,1.65,1.65,0,0,1-1.69-1.64" transform="translate(-7860.86 -1831.92)"/><path class="cls-1" d="M7998.06,1928l1.95.26v.69l-4.3,1.09V1928a6.31,6.31,0,0,1-4.53,2.12c-3,0-5.24-2.58-5.24-6.45,0-5.33,3.38-7.93,6.88-7.93a9.81,9.81,0,0,1,2.89.51v-5.3l-2.18-.26V1910l4.53-1.08Zm-2.35-1.23v-9.14a4.83,4.83,0,0,0-3.09-1.17c-2.35,0-4.3,2.43-4.3,6s1.55,5.84,4.15,5.84a4.68,4.68,0,0,0,3.24-1.52" transform="translate(-7860.86 -1831.92)"/><path class="cls-1" d="M8007.34,1929.68v-.58l2.1-.63v-10.74l-2.1-.26v-.69l4.44-1.08v12.77l2.1.63v.58Zm1.61-18.43a1.66,1.66,0,0,1,1.69-1.63,1.7,1.7,0,0,1,1.69,1.63,1.68,1.68,0,0,1-1.69,1.64,1.65,1.65,0,0,1-1.69-1.64" transform="translate(-7860.86 -1831.92)"/><path class="cls-1" d="M8021.16,1923c0-4,2.23-7.27,6.64-7.27s6.59,3.32,6.59,7.07c0,4-2.23,7.31-6.64,7.31s-6.59-3.35-6.59-7.11m10.48-.11c0-4.59-1.46-6.36-3.89-6.36s-3.84,1.8-3.84,6.39,1.46,6.39,3.89,6.39,3.84-1.84,3.84-6.42" transform="translate(-7860.86 -1831.92)"/><path class="cls-1" d="M8042,1929.68v-.58l2.09-.63v-10.74l-2.09-.26v-.69l4.44-1.08v2.14a7.07,7.07,0,0,1,4.55-2.14,3.6,3.6,0,0,1,3.58,2.4,7.18,7.18,0,0,1,4.79-2.4c2.38,0,3.81,1.54,3.81,4.32v8.45l2.09.63v.58h-6.53v-.58l2.09-.63v-7.9c0-2.18-1-3.18-2.78-3.18a4.69,4.69,0,0,0-3.24,1.63v9.45l2.09.63v.58h-6.53v-.58l2.09-.63v-7.9c0-2.18-1-3.18-2.78-3.18a4.66,4.66,0,0,0-3.23,1.54v9.54l2.09.63v.58Z" transform="translate(-7860.86 -1831.92)"/><path class="cls-1" d="M8084.08,1929.62a8.36,8.36,0,0,1-2.61.46c-1.12,0-1.86-.57-1.86-1.61V1928a5.35,5.35,0,0,1-4.1,2.12c-1.78,0-3.32-.86-3.32-2.72,0-2.5,2.66-4.07,7.42-4.64v-3.39c0-2.09-.8-2.83-2.09-2.83-1.55,0-2.75,1.09-2.81,3.46h-.55c-1.29,0-1.6-.48-1.6-1.11,0-1.87,2.84-3.15,5.7-3.15,2.67,0,3.7,1.51,3.7,3.81v7.73c0,1.32.37,1.75,1.4,1.75h.72Zm-7.57-.92a4.09,4.09,0,0,0,3.1-1.94v-3.24c-2.92.46-4.87,1.66-4.87,3.26a1.69,1.69,0,0,0,1.77,1.92" transform="translate(-7860.86 -1831.92)"/><path class="cls-1" d="M8095.74,1930.08c-2.32,0-4.76-.83-4.76-2.52,0-.86.83-1.55,2-1.64.06,2.24,1.09,3.36,2.9,3.36,1.6,0,2.89-.89,2.89-2.24s-1-1.89-3.15-3-4-2.09-4-4.38c0-2.5,2.23-4,4.7-4s4.09.86,4.09,2.46c0,1-1,1.37-2.09,1.37,0-1.69-.63-3-2.43-3a2.15,2.15,0,0,0-2.38,2.23c0,1.41,1.49,2.12,3.38,3,2.06,1,4,2.06,4,4.27,0,2.55-2.35,4-5.1,4" transform="translate(-7860.86 -1831.92)"/></svg>